<svg width="188" height="55" viewBox="0 0 188 55" fill="none" xmlns="http://www.w3.org/2000/svg">
<path d="M27.5001 6.4001C39.2001 6.4001 48.6001 15.9001 48.6001 27.5001C48.6001 39.2001 39.1001 48.6001 27.5001 48.6001C15.8001 48.6001 6.4001 39.1001 6.4001 27.5001C6.4001 15.9001 15.9001 6.4001 27.5001 6.4001ZM27.5001 5.1001C15.1001 5.1001 5.1001 15.1001 5.1001 27.5001C5.1001 39.9001 15.1001 50.0001 27.5001 50.0001C39.9001 50.0001 50.0001 39.9001 50.0001 27.5001C50.0001 15.1001 39.9001 5.1001 27.5001 5.1001Z" fill="white"/>
<path d="M27.5 0C12.3 0 0 12.3 0 27.5C0 42.7 12.3 55 27.5 55C42.7 55 55 42.7 55 27.5C55.1 12.3 42.7 0 27.5 0ZM27.5 51.3C14.4 51.3 3.7 40.6 3.7 27.5C3.7 14.4 14.4 3.7 27.5 3.7C40.6 3.7 51.3 14.4 51.3 27.5C51.3 40.7 40.7 51.3 27.5 51.3Z" fill="white"/>
<path d="M19.3999 14V14.8C18.7999 14.8 18.3999 14.8 18.2999 14.9C18.1999 14.9 18.0999 15 17.9999 15C17.8999 15 17.8999 15.1 17.8999 15.2C17.8999 15.3 17.7999 15.5 17.7999 15.8C17.7999 16 17.7999 16.3 17.7999 16.7C17.7999 18.2 17.7999 19.1 17.7999 19.2V23V24.7C17.7999 25.3 17.7999 25.8 17.8999 26C17.8999 26.1 17.9999 26.2 17.9999 26.2C18.0999 26.2 18.1999 26.3 18.2999 26.3C18.3999 26.3 18.7999 26.3 19.3999 26.4V27.2C18.3999 27.2 17.2999 27.1 16.0999 27.1C15.0999 27.1 14.1999 27.1 13.3999 27.2V26.4C13.9999 26.4 14.3999 26.4 14.4999 26.3C14.5999 26.3 14.6999 26.2 14.7999 26.2C14.7999 26.2 14.8999 26.1 14.8999 26C14.8999 25.9 14.8999 25.6 14.9999 25.1C15.0999 24.4 15.0999 23.7 15.0999 23V19.1C15.0999 17.9 15.0999 17.1 15.0999 16.7C15.0999 15.9 14.9999 15.4 14.9999 15.2C14.9999 15.1 14.9999 15.1 14.8999 15C14.8999 15 14.7999 14.9 14.6999 14.9C14.5999 14.9 14.1999 14.8 13.4999 14.8V14C14.2999 14 15.1999 14.1 16.1999 14.1C17.2999 14.1 18.3999 14.1 19.3999 14Z" fill="white"/>
<path d="M19.6001 34.4999V33.6999C20.1001 33.6999 20.5001 33.6999 20.6001 33.5999C20.7001 33.5999 20.8001 33.4999 20.9001 33.4999C21.0001 33.4999 21.0001 33.3999 21.0001 33.2999C21.1001 33.0999 21.1001 32.6999 21.1001 31.9999V30.0999V25.6999V23.8999C21.1001 23.1999 21.1001 22.7999 21.0001 22.5999C21.0001 22.4999 20.9001 22.3999 20.9001 22.3999C20.8001 22.3999 20.8001 22.2999 20.6001 22.2999C20.5001 22.2999 20.1001 22.1999 19.6001 22.1999V21.3999C20.5001 21.3999 21.5001 21.4999 22.6001 21.4999C23.5001 21.4999 24.4001 21.4999 25.1001 21.3999V22.1999C24.5001 22.1999 24.1001 22.1999 24.0001 22.2999C23.9001 22.2999 23.8001 22.3999 23.8001 22.3999C23.8001 22.4999 23.7001 22.6999 23.7001 23.0999C23.6001 23.6999 23.6001 24.6999 23.6001 25.8999V26.9999C24.0001 26.9999 24.9001 27.0999 26.2001 27.0999C27.9001 27.0999 28.9001 27.0999 29.3001 26.9999V25.8999C29.3001 24.8999 29.3001 24.2999 29.3001 23.9999C29.3001 23.1999 29.2001 22.6999 29.2001 22.5999C29.2001 22.4999 29.2001 22.4999 29.1001 22.3999C29.1001 22.3999 29.0001 22.2999 28.9001 22.2999C28.8001 22.2999 28.4001 22.1999 27.8001 22.1999V21.3999C28.5001 21.3999 29.4001 21.4999 30.3001 21.4999C31.3001 21.4999 32.3001 21.4999 33.3001 21.3999V22.1999C32.8001 22.1999 32.4001 22.1999 32.3001 22.2999C32.2001 22.2999 32.1001 22.3999 32.0001 22.3999C31.9001 22.3999 31.9001 22.4999 31.9001 22.5999C31.8001 22.7999 31.8001 23.1999 31.8001 23.8999V25.7999V30.1999V31.9999C31.8001 32.6999 31.8001 33.0999 31.9001 33.2999C31.9001 33.3999 32.0001 33.4999 32.0001 33.4999C32.1001 33.4999 32.1001 33.5999 32.3001 33.5999C32.4001 33.5999 32.8001 33.5999 33.3001 33.6999V34.4999C32.4001 34.4999 31.4001 34.3999 30.3001 34.3999C29.4001 34.3999 28.5001 34.3999 27.8001 34.4999V33.6999C28.4001 33.6999 28.8001 33.6999 28.9001 33.5999C29.0001 33.5999 29.1001 33.4999 29.1001 33.4999C29.1001 33.3999 29.2001 33.1999 29.2001 32.7999C29.2001 32.1999 29.3001 31.1999 29.3001 29.9999V27.9999C29.0001 27.9999 28.1001 27.9999 26.7001 27.9999C25.4001 27.9999 24.5001 27.9999 24.0001 27.9999C23.8001 27.9999 23.6001 27.9999 23.5001 27.9999V29.9999C23.5001 30.9999 23.5001 31.5999 23.5001 31.8999C23.5001 32.6999 23.6001 33.1999 23.6001 33.2999C23.6001 33.3999 23.6001 33.3999 23.7001 33.4999C23.7001 33.4999 23.8001 33.5999 23.9001 33.5999C24.0001 33.5999 24.4001 33.6999 25.0001 33.6999V34.4999C24.3001 34.4999 23.4001 34.3999 22.5001 34.3999C21.5001 34.3999 20.5001 34.3999 19.6001 34.4999Z" fill="white"/>
<path d="M41.5999 31.2H40.8999C40.8999 30.5 40.8999 30 40.7999 29.7C40.5999 29.4 40.2999 29.2 39.8999 29C39.3999 28.8 38.8999 28.7 38.3999 28.7C37.5999 28.7 36.9999 28.9 36.4999 29.3C36.0999 29.7 35.7999 30.2 35.7999 30.8C35.7999 31.2 35.8999 31.6 35.9999 31.8C36.0999 32.1 36.2999 32.3 36.4999 32.4C36.6999 32.6 37.0999 32.7 37.4999 32.8C37.7999 32.9 38.2999 33 38.8999 33.1C39.4999 33.2 39.8999 33.3 40.0999 33.3C40.5999 33.4 40.9999 33.6 41.2999 33.8C41.5999 34 41.7999 34.2 41.9999 34.4C42.1999 34.6 42.2999 34.9 42.3999 35.3C42.4999 35.7 42.5999 36.1 42.5999 36.5C42.5999 37.3 42.3999 38 42.0999 38.6C41.8999 39.1 41.4999 39.5 41.0999 39.8C40.6999 40.2 40.1999 40.5 39.7999 40.6C39.0999 40.9 38.1999 41.1 37.1999 41.1C36.4999 41.1 35.7999 41 35.2999 40.9C34.6999 40.8 34.0999 40.5 33.3999 40.2C33.5999 39.5 33.6999 38.4 33.6999 37H34.3999C34.3999 37.5 34.3999 38 34.4999 38.7C34.6999 39.1 35.0999 39.4 35.6999 39.7C36.1999 40 36.7999 40.1 37.4999 40.1C38.0999 40.1 38.5999 40 38.9999 39.8C39.3999 39.6 39.7999 39.3 39.9999 38.9C40.1999 38.5 40.2999 38.1 40.2999 37.6C40.2999 37.2 40.1999 36.9 40.0999 36.6C39.9999 36.3 39.6999 36.1 39.3999 35.9C39.0999 35.7 38.5999 35.6 37.7999 35.4C36.6999 35.2 35.9999 35 35.6999 34.9C35.1999 34.7 34.7999 34.5 34.4999 34.2C34.1999 33.9 33.9999 33.5 33.7999 33.1C33.5999 32.7 33.5999 32.2 33.5999 31.7C33.5999 31 33.6999 30.4 33.9999 29.8C34.2999 29.2 34.5999 28.8 35.0999 28.4C35.5999 28.1 36.0999 27.8 36.5999 27.7C37.1999 27.6 37.7999 27.5 38.3999 27.5C38.9999 27.5 39.5999 27.6 40.1999 27.7C40.7999 27.8 41.2999 28 41.6999 28.2L41.7999 28.4C41.6999 28.8 41.6999 29.2 41.5999 29.6C41.6999 30.1 41.5999 30.6 41.5999 31.2Z" fill="white"/>
<path d="M64.1001 35.4V34.6H64.4001C64.6001 34.6 64.8001 34.6 65.0001 34.6C65.2001 34.6 65.4001 34.5 65.5001 34.4C65.7001 34.3 65.8001 34.2 65.9001 34C66.0001 33.8 66.0001 33.6 66.0001 33.2V23.4C66.0001 23.1 66.0001 22.8 65.9001 22.6C65.8001 22.4 65.7001 22.3 65.5001 22.2C65.3001 22.1 65.2001 22 65.0001 22C64.8001 22 64.6001 22 64.4001 22H64.1001V21H70.0001V21.8H69.7001C69.5001 21.8 69.3001 21.8 69.1001 21.8C68.9001 21.8 68.7001 21.9 68.6001 22C68.5001 22.1 68.3001 22.2 68.2001 22.4C68.1001 22.6 68.1001 22.8 68.1001 23.2V33C68.1001 33.3 68.1001 33.6 68.2001 33.8C68.3001 34 68.4001 34.1 68.6001 34.2C68.7001 34.3 68.9001 34.4 69.1001 34.4C69.3001 34.4 69.5001 34.4 69.7001 34.4H70.0001V35.2H64.1001V35.4Z" fill="white"/>
<path d="M85.1 35.4L77.5 23.8V33.1C77.5 33.4 77.5 33.7 77.6 33.9C77.7 34.1 77.8 34.2 78 34.3C78.1 34.4 78.3 34.5 78.5 34.5C78.7 34.5 78.9 34.5 79.1 34.5H79.4V35.3H74.3V34.5H74.6C74.8 34.5 75 34.5 75.2 34.5C75.4 34.5 75.6 34.4 75.7 34.3C75.9 34.2 76 34.1 76.1 33.9C76.2 33.7 76.2 33.5 76.2 33.1V23.2C76.2 22.9 76.2 22.7 76.1 22.5C76 22.3 75.9 22.2 75.7 22.1C75.5 22 75.4 21.9 75.2 21.9C75 21.9 74.8 21.9 74.6 21.9H74.3V21H78L85.2 32.2V23.2C85.2 22.9 85.2 22.7 85.1 22.5C85 22.3 84.9 22.2 84.7 22.1C84.5 22 84.4 21.9 84.2 21.9C84 21.9 83.8 21.9 83.6 21.9H83.3V21H88.4V21.8H88.1C87.9 21.8 87.7 21.8 87.5 21.8C87.3 21.8 87.1 21.9 87 22C86.8 22.1 86.7 22.2 86.6 22.4C86.5 22.6 86.5 22.8 86.5 23.2V35.3H85.1V35.4Z" fill="white"/>
<path d="M97.9 35.4L93.5 22.9C93.4 22.7 93.3 22.5 93.3 22.4C93.2 22.3 93.1 22.2 93 22.1C92.9 22 92.8 22 92.6 21.9C92.5 21.9 92.3 21.9 92.1 21.9H91.8V21H97.4V21.8H96.9C96.5 21.8 96.2 21.9 96 22C95.8 22.2 95.7 22.4 95.7 22.7C95.7 22.8 95.7 22.9 95.7 23C95.7 23.1 95.8 23.3 95.8 23.4L98 30C98.2 30.6 98.4 31.2 98.5 31.7C98.6 32.3 98.8 32.8 98.9 33.3C99 32.8 99.1 32.3 99.3 31.8C99.4 31.3 99.6 30.7 99.9 30L102.1 23.6C102.2 23.4 102.2 23.3 102.2 23.1C102.2 22.9 102.2 22.8 102.2 22.7C102.2 22.4 102.1 22.1 101.9 21.9C101.7 21.7 101.3 21.7 100.9 21.7H100.4V21H105.3V21.8H104.9C104.7 21.8 104.5 21.8 104.4 21.9C104.3 21.9 104.1 22 104 22.1C103.9 22.2 103.8 22.4 103.7 22.6C103.6 22.8 103.5 23.1 103.4 23.4L99.2 35.4H97.9Z" fill="white"/>
<path d="M113 34.4H116.9C117.2 34.4 117.5 34.4 117.7 34.3C117.9 34.2 118.1 34.1 118.3 33.9C118.5 33.7 118.6 33.6 118.7 33.4C118.8 33.2 118.8 33 118.9 32.8L119 31.9H120.1L120 35.4H109.2V34.6H109.5C109.7 34.6 109.9 34.6 110.1 34.6C110.3 34.6 110.5 34.5 110.6 34.4C110.8 34.3 110.9 34.2 111 34C111.1 33.8 111.1 33.6 111.1 33.3V23.4C111.1 23.1 111.1 22.8 111 22.6C110.9 22.4 110.8 22.3 110.6 22.2C110.4 22.1 110.3 22 110.1 22C109.9 22 109.7 22 109.5 22H109.2V21H119.4L119.5 24.5H118.5L118.4 23.6C118.4 23.4 118.3 23.2 118.2 23C118.1 22.8 118 22.6 117.9 22.5C117.8 22.3 117.6 22.2 117.4 22.1C117.2 22 116.9 22 116.6 22H113V27.4H117.9V28.4H113V34.4Z" fill="white"/>
<path d="M134.9 33C135.2 33.5 135.6 33.9 135.9 34.2C136.2 34.5 136.6 34.6 137 34.6H137.1V35.4H136.8C136.2 35.4 135.7 35.4 135.2 35.3C134.8 35.3 134.5 35.2 134.2 35C133.9 34.9 133.7 34.7 133.5 34.4C133.3 34.2 133.1 33.9 132.9 33.5L130.2 29H128.5V33.2C128.5 33.5 128.5 33.7 128.6 33.9C128.7 34.1 128.8 34.2 129 34.3C129.2 34.4 129.3 34.5 129.5 34.5C129.7 34.5 129.9 34.5 130.1 34.5H130.4V35.3H124.5V34.5H124.8C125 34.5 125.2 34.5 125.4 34.5C125.6 34.5 125.8 34.4 125.9 34.3C126.1 34.2 126.2 34.1 126.3 33.9C126.4 33.7 126.4 33.5 126.4 33.2V23.2C126.4 22.9 126.4 22.7 126.3 22.5C126.2 22.3 126.1 22.2 125.9 22.1C125.7 22 125.6 21.9 125.4 21.9C125.2 21.9 125 21.9 124.8 21.9H124.5V21H129.9C131.7 21 133 21.3 133.8 22C134.7 22.6 135.1 23.6 135.1 24.9C135.1 25.4 135 25.9 134.8 26.3C134.6 26.7 134.4 27.1 134.1 27.4C133.8 27.7 133.5 27.9 133.1 28.1C132.7 28.3 132.4 28.5 132 28.6L134.9 33ZM128.5 28.1H129.9C130.5 28.1 131 28 131.4 27.9C131.8 27.8 132.1 27.6 132.3 27.3C132.5 27 132.7 26.7 132.8 26.3C132.9 25.9 133 25.4 133 24.9C133 24.4 132.9 23.9 132.8 23.5C132.7 23.1 132.5 22.8 132.3 22.6C132.1 22.4 131.7 22.2 131.3 22.1C130.9 22 130.4 21.9 129.8 21.9H128.4V28.1H128.5Z" fill="white"/>
<path d="M147.1 20.7998C147.8 20.7998 148.4 20.8998 148.9 20.9998C149.4 21.0998 149.8 21.2998 150.2 21.4998C150.5 21.6998 150.8 21.8998 151 22.1998C151.2 22.4998 151.3 22.7998 151.3 23.0998C151.3 23.2998 151.3 23.4998 151.2 23.6998C151.1 23.8998 151 23.9998 150.8 24.0998C150.6 24.1998 150.5 24.2998 150.2 24.3998C150 24.4998 149.8 24.4998 149.5 24.4998C149.5 24.1998 149.5 23.8998 149.4 23.5998C149.3 23.2998 149.2 22.9998 149 22.7998C148.8 22.5998 148.6 22.3998 148.3 22.1998C148 21.9998 147.6 21.9998 147.2 21.9998C146.4 21.9998 145.8 22.0998 145.3 22.3998C144.8 22.6998 144.3 23.0998 144 23.5998C143.7 24.0998 143.4 24.7998 143.3 25.5998C143.1 26.3998 143.1 27.2998 143.1 28.2998C143.1 29.1998 143.2 29.9998 143.3 30.7998C143.5 31.5998 143.7 32.1998 144.1 32.6998C144.4 33.1998 144.9 33.6998 145.4 33.8998C145.9 34.1998 146.6 34.2998 147.3 34.2998C147.8 34.2998 148.2 34.2998 148.6 34.1998C149 34.0998 149.3 33.9998 149.6 33.7998C149.9 33.5998 150.1 33.4998 150.4 33.2998C150.6 33.0998 150.8 32.8998 151 32.6998C151.1 32.7998 151.2 32.8998 151.3 32.9998C151.4 33.0998 151.4 33.2998 151.4 33.4998C151.4 33.7998 151.3 33.9998 151.1 34.2998C150.9 34.5998 150.7 34.7998 150.3 34.9998C149.9 35.1998 149.5 35.3998 148.9 35.4998C148.4 35.5998 147.7 35.6998 147 35.6998C146 35.6998 145.1 35.4998 144.3 35.1998C143.5 34.7998 142.9 34.2998 142.4 33.6998C141.9 32.9998 141.5 32.2998 141.2 31.3998C140.9 30.4998 140.8 29.4998 140.8 28.3998C140.8 27.2998 140.9 26.2998 141.2 25.3998C141.5 24.4998 141.9 23.6998 142.4 23.0998C142.9 22.3998 143.6 21.8998 144.4 21.5998C145.1 20.9998 146 20.7998 147.1 20.7998Z" fill="white"/>
<path d="M168.5 28.2C168.5 29.3 168.4 30.3 168.1 31.2C167.8 32.1 167.4 32.9 166.9 33.5C166.4 34.2 165.7 34.7 164.9 35C164.1 35.4 163.2 35.5 162.2 35.5C161.1 35.5 160.2 35.3 159.4 35C158.6 34.6 157.9 34.1 157.4 33.5C156.9 32.8 156.5 32.1 156.2 31.1C155.9 30.2 155.8 29.2 155.8 28C155.8 26.8 155.9 25.9 156.2 25C156.5 24.1 156.9 23.3 157.4 22.7C157.9 22.1 158.6 21.6 159.4 21.2C160.2 20.8 161.1 20.7 162.2 20.7C163.2 20.7 164.1 20.9 164.9 21.2C165.7 21.6 166.3 22.1 166.9 22.7C167.4 23.3 167.8 24.1 168.1 25C168.4 26 168.5 27.1 168.5 28.2ZM158 28.2C158 29.2 158.1 30.0999 158.2 30.9C158.3 31.7 158.6 32.4 158.9 32.9C159.2 33.4 159.7 33.8999 160.2 34.0999C160.7 34.3999 161.4 34.5 162.1 34.5C162.8 34.5 163.5 34.3999 164 34.0999C164.5 33.7999 164.9 33.4 165.3 32.9C165.6 32.4 165.9 31.7 166 30.9C166.1 30.0999 166.2 29.2 166.2 28.2C166.2 27.2 166.1 26.3 166 25.5C165.9 24.7 165.6 24.1 165.3 23.5C165 23 164.6 22.4999 164 22.2999C163.5 21.9999 162.9 21.9 162.1 21.9C161.3 21.9 160.7 21.9999 160.2 22.2999C159.7 22.5999 159.2 23 158.9 23.5C158.6 24 158.3 24.7 158.2 25.5C158.1 26.3 158 27.2 158 28.2Z" fill="white"/>
<path d="M184 35.4L176.4 23.8V33.1C176.4 33.4 176.4 33.7 176.5 33.9C176.6 34.1 176.7 34.2 176.9 34.3C177 34.4 177.2 34.5 177.4 34.5C177.6 34.5 177.8 34.5 178 34.5H178.3V35.3H173.2V34.5H173.5C173.7 34.5 173.9 34.5 174.1 34.5C174.3 34.5 174.5 34.4 174.6 34.3C174.8 34.2 174.9 34.1 175 33.9C175.1 33.7 175.1 33.5 175.1 33.1V23.2C175.1 22.9 175.1 22.7 175 22.5C174.9 22.3 174.8 22.2 174.6 22.1C174.4 22 174.3 21.9 174.1 21.9C173.9 21.9 173.7 21.9 173.5 21.9H173.2V21H176.9L184.1 32.2V23.2C184.1 22.9 184.1 22.7 184 22.5C183.9 22.3 183.8 22.2 183.6 22.1C183.4 22 183.3 21.9 183.1 21.9C182.9 21.9 182.7 21.9 182.5 21.9H182.2V21H187.3V21.8H187C186.8 21.8 186.6 21.8 186.4 21.8C186.2 21.8 186 21.9 185.9 22C185.7 22.1 185.6 22.2 185.5 22.4C185.4 22.6 185.4 22.8 185.4 23.2V35.3H184V35.4Z" fill="white"/>
</svg>
