<?xml version="1.0" encoding="utf-8"?>
<svg version="1.1" id="Capa_1" xmlns="http://www.w3.org/2000/svg" x="0px" y="0px"
	 viewBox="0 0 288.6 145.2" style="enable-background:new 0 0 288.6 145.2;" xml:space="preserve">
<style type="text/css">
	.st0{fill:#1D191C;}
</style>
<g>
	<g>
		<g>
			<path class="st0" d="M61.7,32.8h3.5V11.1h-3.5v-0.4h5.6c0.3,0,0.6,0,1,0c0.3,0,0.6-0.1,1-0.1c0.3,0,0.7,0,1,0c0.3,0,0.6,0,0.9,0
				c1.5,0,2.8,0.2,3.8,0.6c1,0.3,1.8,0.8,2.4,1.3c0.6,0.5,1,1.1,1.2,1.7c0.2,0.6,0.3,1.2,0.3,1.7c0,0.7-0.1,1.3-0.5,1.9
				c-0.3,0.6-0.7,1.1-1.2,1.6c-0.5,0.4-1.1,0.8-1.8,1.1c-0.7,0.3-1.4,0.5-2.1,0.5v0.1c0.8,0.1,1.5,0.2,2.3,0.5
				c0.8,0.3,1.5,0.6,2.1,1.1c0.7,0.4,1.2,1,1.6,1.8c0.4,0.7,0.6,1.5,0.6,2.4c0,1-0.2,1.9-0.5,2.6c-0.4,0.8-0.9,1.5-1.6,2.1
				c-0.7,0.6-1.6,1-2.8,1.3c-1.1,0.3-2.4,0.5-3.8,0.5c-0.3,0-0.6,0-0.9,0c-0.3,0-0.6,0-0.9,0c-0.3,0-0.6,0-1-0.1c-0.4,0-0.7,0-1.1,0
				h-5.6V32.8z M68.5,20.9h2.9c0.6,0,1.1-0.1,1.6-0.2c0.5-0.2,0.9-0.4,1.2-0.8c0.4-0.4,0.6-0.8,0.8-1.5c0.2-0.6,0.3-1.4,0.3-2.4
				c0-1.1-0.2-2-0.4-2.6c-0.3-0.7-0.7-1.2-1.1-1.5c-0.5-0.4-1-0.6-1.5-0.7C71.7,11,71.1,11,70.6,11c-0.4,0-0.8,0-1.1,0
				c-0.4,0-0.7,0-1,0.1V20.9z M68.5,32.8c0.2,0,0.5,0.1,0.8,0.1c0.3,0,0.7,0.1,1.3,0.1c1,0,1.9-0.1,2.6-0.3c0.7-0.2,1.3-0.5,1.7-1
				c0.5-0.5,0.8-1.1,1-1.9c0.2-0.8,0.3-1.8,0.3-3c0-1.7-0.4-3-1.1-4c-0.7-1-1.8-1.5-3.2-1.5h-3.4V32.8z"/>
			<path class="st0" d="M88.6,21.9c0-1.7,0.4-3.2,1-4.7c0.7-1.4,1.5-2.7,2.6-3.7c1.1-1.1,2.2-1.9,3.5-2.5c1.3-0.6,2.6-0.9,3.9-0.9
				c1.4,0,2.8,0.3,4.1,0.9c1.3,0.6,2.5,1.4,3.5,2.5c1,1.1,1.9,2.3,2.5,3.7c0.6,1.5,0.9,3,0.9,4.7c0,1.5-0.3,2.9-0.9,4.4
				c-0.6,1.4-1.3,2.7-2.4,3.8c-1,1.1-2.2,2-3.5,2.7c-1.4,0.7-2.8,1-4.4,1c-1.6,0-3.1-0.4-4.4-1c-1.4-0.6-2.5-1.5-3.5-2.6
				c-1-1.1-1.8-2.3-2.3-3.8C88.9,24.9,88.6,23.4,88.6,21.9 M92.2,21.9c0,1.9,0.1,3.6,0.4,5c0.2,1.4,0.7,2.6,1.2,3.5
				c0.6,1,1.4,1.7,2.3,2.1c0.9,0.5,2.1,0.7,3.4,0.7s2.5-0.2,3.5-0.7c0.9-0.5,1.7-1.2,2.3-2.1c0.6-0.9,1-2.1,1.3-3.5
				c0.2-1.4,0.4-3.1,0.4-5c0-1.4-0.1-2.8-0.3-4.2c-0.2-1.4-0.5-2.6-1.1-3.7c-0.5-1-1.3-1.9-2.3-2.5c-1-0.6-2.2-0.9-3.8-0.9
				c-1.5,0-2.8,0.3-3.7,0.9c-1,0.6-1.7,1.5-2.2,2.5c-0.6,1.1-0.9,2.3-1.1,3.7C92.3,19,92.2,20.5,92.2,21.9"/>
			<path class="st0" d="M118.2,32.8h3.5V11.1h-3.5v-0.4h5.9c0.3,0,0.6,0,0.9,0c0.3,0,0.6-0.1,0.9-0.1c0.3,0,0.6,0,0.9,0
				c0.3,0,0.6,0,0.9,0c0.6,0,1.2,0,1.7,0.1c0.5,0,1,0.1,1.4,0.1c0.4,0.1,0.9,0.1,1.2,0.3c0.4,0.1,0.8,0.2,1.3,0.3
				c1.3,0.4,2.4,1,3.4,1.7c0.9,0.7,1.7,1.5,2.3,2.5c0.6,1,1,2,1.3,3.1c0.3,1.1,0.4,2.3,0.4,3.5c0,1.4-0.2,2.7-0.5,3.8
				c-0.4,1.1-0.8,2.1-1.4,2.9c-0.6,0.9-1.3,1.6-2.1,2.2c-0.8,0.6-1.6,1.1-2.6,1.5c-0.5,0.2-1,0.4-1.4,0.6c-0.5,0.1-0.9,0.2-1.4,0.3
				c-0.5,0.1-1,0.1-1.6,0.1c-0.5,0-1.2,0-1.9,0c-0.3,0-0.7,0-1,0c-0.4,0-0.7,0-1.1,0c-0.3,0-0.7,0-1.1-0.1c-0.4,0-0.7,0-1,0h-5.4
				V32.8z M124.9,32.8c0.3,0.1,0.8,0.1,1.3,0.1c0.5,0,1,0.1,1.6,0.1c0.7,0,1.4-0.1,2.2-0.1c0.7-0.1,1.4-0.2,2-0.5
				c0.6-0.2,1.2-0.6,1.8-1c0.5-0.5,1-1,1.5-1.8c0.7-1.1,1.1-2.3,1.4-3.5c0.3-1.2,0.4-2.5,0.4-3.9c0-1.7-0.1-3.2-0.5-4.6
				c-0.3-1.4-0.8-2.5-1.6-3.5c-0.7-1-1.7-1.7-2.9-2.2c-1.2-0.5-2.7-0.8-4.5-0.8c-0.5,0-1,0-1.5,0c-0.4,0-0.8,0.1-1.3,0.1V32.8z"/>
			<path class="st0" d="M148.6,32.8h3.5V11.1h-3.5v-0.4h18.2v5.5h-0.4c-0.3-0.8-0.6-1.5-0.9-2.1c-0.3-0.6-0.7-1.2-1.2-1.6
				c-0.4-0.4-1-0.7-1.6-1c-0.6-0.2-1.4-0.3-2.2-0.3h-5.2v9.8h2.1c0.7,0,1.3,0,1.8-0.2c0.5-0.1,0.9-0.4,1.3-0.7
				c0.3-0.4,0.6-0.8,0.9-1.5c0.3-0.6,0.5-1.4,0.7-2.3h0.4v9.9H162c-0.1-0.6-0.3-1.2-0.5-1.8c-0.2-0.6-0.4-1.1-0.7-1.5
				c-0.3-0.5-0.6-0.8-1.1-1.1c-0.5-0.2-1.1-0.4-1.9-0.4h-2.5v11.4h6c1.2,0,2.1-0.3,2.9-0.7c0.8-0.5,1.4-1.1,1.9-1.8
				c0.5-0.7,0.8-1.4,1.1-2.2c0.2-0.8,0.4-1.4,0.5-1.9h0.3v7h-19.4V32.8z"/>
			<path class="st0" d="M199,25.2h-2.5v7.2h-0.4c-0.2-0.2-0.4-0.4-0.6-0.5c-0.1-0.1-0.4-0.1-0.7-0.1c-0.4,0-0.8,0.1-1.2,0.3
				c-0.4,0.2-0.8,0.4-1.4,0.7c-0.5,0.3-1.1,0.5-1.8,0.7c-0.7,0.2-1.6,0.3-2.6,0.3c-1.5,0-2.8-0.3-4-0.8c-1.2-0.5-2.3-1.3-3.4-2.4
				c-1.1-1.1-1.9-2.3-2.6-3.8c-0.7-1.4-1-3.1-1-4.8c0-1.2,0.1-2.3,0.4-3.2c0.3-1,0.6-1.8,1-2.5c0.4-0.7,0.8-1.3,1.2-1.8
				c0.4-0.5,0.8-0.9,1-1.1c1-0.9,2.1-1.7,3.3-2.3c1.2-0.6,2.6-0.9,4.2-0.9c0.8,0,1.5,0,2,0.2c0.5,0.1,0.9,0.3,1.3,0.4
				c0.4,0.2,0.7,0.3,1,0.4c0.3,0.1,0.7,0.2,1,0.2c0.4,0,0.7-0.1,0.9-0.2c0.2-0.1,0.4-0.3,0.5-0.5h0.5V17h-0.4
				c-0.1-0.6-0.3-1.2-0.5-1.9c-0.3-0.8-0.6-1.5-1.1-2.2c-0.5-0.7-1.2-1.2-2.1-1.7c-0.9-0.5-2-0.7-3.3-0.7c-1.6,0-2.9,0.3-3.8,1
				c-1,0.7-1.7,1.5-2.3,2.6c-0.5,1.1-0.9,2.3-1.1,3.7c-0.2,1.4-0.3,2.7-0.3,4.2c0,1,0.1,1.9,0.2,2.9c0.1,0.9,0.2,1.8,0.4,2.7
				c0.2,0.9,0.5,1.6,0.8,2.4c0.4,0.7,0.8,1.3,1.4,1.8c0.6,0.6,1.3,1,2,1.2c0.7,0.2,1.6,0.3,2.6,0.3c0.7,0,1.3-0.1,2-0.3
				c0.7-0.2,1.3-0.6,1.8-1c0.5-0.5,0.9-1,1.3-1.7c0.3-0.7,0.5-1.5,0.5-2.4v-2.7h-4.1v-0.5h9.7V25.2z"/>
			<path class="st0" d="M204.1,32.8h2.8l8.6-22.7h0.8l8.6,22.7h2.8v0.5h-9.8v-0.5h3.5l-3.3-8.8h-7.4l-3.3,8.8h3.5v0.5h-6.9V32.8z
				 M214.4,14.3l-3.5,9.3h6.9L214.4,14.3z"/>
		</g>
		<g>
			<path class="st0" d="M71.6,118.4h2.6v10.3c0,1.4-0.1,2.4-0.3,3.2c-0.2,0.7-0.4,1.3-0.7,1.8c-0.3,0.5-0.7,0.9-1.1,1.3
				c-1.4,1.2-3.3,1.9-5.6,1.9c-2.3,0-4.2-0.6-5.7-1.9c-0.4-0.4-0.8-0.8-1.1-1.3c-0.3-0.5-0.6-1.1-0.7-1.7c-0.2-0.7-0.3-1.8-0.3-3.2
				v-10.2h2.6v10.3c0,1.7,0.2,2.9,0.6,3.6c0.4,0.7,1,1.2,1.8,1.6c0.8,0.4,1.7,0.6,2.8,0.6c1.5,0,2.8-0.4,3.7-1.2
				c0.5-0.4,0.9-0.9,1.1-1.5c0.2-0.6,0.3-1.6,0.3-3V118.4z"/>
			<path class="st0" d="M86.6,136.5v-18.1h4.5c1.8,0,3.3,0.5,4.4,1.4c1.1,0.9,1.6,2.1,1.6,3.7c0,1.1-0.3,2-0.8,2.7
				c-0.5,0.8-1.3,1.3-2.3,1.7c0.6,0.4,1.2,0.9,1.7,1.6c0.6,0.7,1.3,1.8,2.3,3.4c0.6,1,1.2,1.8,1.5,2.3l1,1.3h-3.1l-0.8-1.2
				c0,0-0.1-0.1-0.2-0.2l-0.5-0.7l-0.8-1.3l-0.9-1.4c-0.5-0.8-1-1.3-1.5-1.8c-0.4-0.4-0.8-0.8-1.2-0.9c-0.4-0.2-1-0.3-1.8-0.3h-0.7
				v7.9H86.6z M90,120.6h-0.8v5.7h1c1.3,0,2.2-0.1,2.7-0.3c0.5-0.2,0.9-0.6,1.1-1c0.3-0.5,0.4-1,0.4-1.6c0-0.6-0.1-1.1-0.4-1.5
				c-0.3-0.5-0.7-0.8-1.3-1C92.2,120.7,91.3,120.6,90,120.6"/>
			<path class="st0" d="M123.1,118.4h2.6v10.3c0,1.4-0.1,2.4-0.3,3.2c-0.2,0.7-0.4,1.3-0.7,1.8c-0.3,0.5-0.7,0.9-1.1,1.3
				c-1.4,1.2-3.3,1.9-5.6,1.9c-2.4,0-4.2-0.6-5.7-1.9c-0.4-0.4-0.8-0.8-1.1-1.3c-0.3-0.5-0.6-1.1-0.7-1.7c-0.2-0.7-0.3-1.8-0.3-3.2
				v-10.2h2.6v10.3c0,1.7,0.2,2.9,0.6,3.6c0.4,0.7,1,1.2,1.8,1.6c0.8,0.4,1.7,0.6,2.8,0.6c1.5,0,2.8-0.4,3.8-1.2
				c0.5-0.4,0.9-0.9,1.1-1.5c0.2-0.6,0.3-1.6,0.3-3V118.4z"/>
			<path class="st0" d="M147.8,127.6h6.1v7.7c-2.2,1-4.4,1.4-6.6,1.4c-3,0-5.4-0.9-7.2-2.6c-1.8-1.8-2.7-3.9-2.7-6.5
				c0-2.7,0.9-5,2.8-6.7c1.8-1.8,4.2-2.7,7-2.7c1,0,2,0.1,2.9,0.3c0.9,0.2,2.1,0.6,3.5,1.2v2.6c-2.1-1.2-4.3-1.9-6.4-1.9
				c-2,0-3.6,0.7-5,2c-1.4,1.3-2,3-2,4.9c0,2,0.7,3.7,2,5c1.3,1.3,3.1,2,5.2,2c1,0,2.3-0.3,3.7-0.7l0.2-0.1v-3.8h-3.5V127.6z"/>
			<path class="st0" d="M179,118.4h2.6v10.3c0,1.4-0.1,2.4-0.3,3.2c-0.2,0.7-0.5,1.3-0.8,1.8c-0.3,0.5-0.7,0.9-1.1,1.3
				c-1.4,1.2-3.3,1.9-5.6,1.9c-2.4,0-4.3-0.6-5.7-1.9c-0.4-0.4-0.8-0.8-1.1-1.3c-0.3-0.5-0.6-1.1-0.7-1.7c-0.2-0.7-0.3-1.8-0.3-3.2
				v-10.2h2.6v10.3c0,1.7,0.2,2.9,0.6,3.6c0.4,0.7,1,1.2,1.8,1.6c0.8,0.4,1.7,0.6,2.8,0.6c1.5,0,2.8-0.4,3.7-1.2
				c0.5-0.4,0.9-0.9,1.1-1.5c0.2-0.6,0.3-1.6,0.3-3V118.4z"/>
			<path class="st0" d="M199,118.3h1.8l8.1,18.2h-2.6l-2.4-5.4h-7.7l-2.2,5.4h-2.7L199,118.3z M202.8,128.9l-2.9-6.6l-2.7,6.6H202.8
				z"/>
			<polygon class="st0" points="227.6,118.4 230.8,118.4 224.1,127 224.1,136.5 221.5,136.5 221.5,127 214.8,118.4 217.9,118.4
				222.7,124.7 			"/>
		</g>
		<path class="st0" d="M270.6,49.9v1h6.5v32.6h-0.1l-23.5-33.6h-14.6c0.5-0.6,0.9-1.5,1.3-2.4c0.4-1,0.7-1.7,0.6-2.9
			c0,0-0.2-2.1-0.7-2.1c0,1.1-0.2,2-0.6,2.5c-0.4,0.6-1,1.1-1.7,1.4c-0.7,0.3-1.5,0.5-2.4,0.6c-0.9,0.1-1.8,0.1-2.7,0.2
			c-0.6,0-1.3,0.1-2,0.1c-0.7,0.1-1.3,0.3-2,0.6c-0.6,0.4-1.1,0.9-1.5,1.6c-0.4,0.7-0.6,1.7-0.6,3c0,0.3,0,0.5,0,0.7
			c-1.4-0.9-2.9-1.6-4.5-2.2c-3.1-1.2-6.3-1.8-9.5-1.8c-2.9,0-6,0.6-9,1.8c-3.1,1.2-5.9,3-8.4,5.2c-2.5,2.3-4.5,5-6.1,8.2
			c-1.6,3.2-2.4,6.7-2.4,10.7c0,3.2,0.6,6.2,1.7,9c-0.6,3.1-1.5,5.5-2.6,7.4c-1.1,1.9-2.4,3.5-3.9,4.7c-1.5,1.2-3.1,2-4.9,2.6
			c-1.7,0.5-3.6,0.8-5.4,0.8h-12.8l28.5-49.7h-36.6v11.9h0.9c0.7-1.7,1.5-3.2,2.3-4.5c0.8-1.3,1.7-2.5,2.8-3.4
			c1.1-1,2.3-1.7,3.7-2.2c1.4-0.5,3.1-0.8,5-0.8h9.8l-28,48.9c-0.2,0.2-0.4,0.4-0.6,0.5c-0.6,0.6-1.4,0.9-2.3,0.9
			c-0.8,0-1.5-0.2-1.9-0.5c-0.5-0.3-0.8-1-1-2c-0.3-1.1-0.5-2.5-0.6-4.3c-0.1-1.8-0.3-4.2-0.6-7.3c-0.2-2.6-0.7-4.7-1.5-6.2
			c-0.8-1.6-1.8-2.7-3.1-3.6c-1.3-0.9-2.9-1.5-4.7-2c-1.8-0.5-3.9-0.8-6.2-1.3v-0.4c1.6-0.1,3.2-0.5,4.9-0.9c1.7-0.4,3.1-1.1,4.5-2
			c1.4-0.9,2.5-2,3.3-3.4c0.8-1.4,1.3-3,1.3-5c0-2.4-0.5-4.5-1.7-6c-1.1-1.6-2.5-2.9-4.2-3.8c-1.7-1-3.6-1.6-5.6-2
			c-2-0.4-4-0.6-5.8-0.6c-2,0-3.9,0-5.9,0.1c-1.9,0.1-3.9,0.1-5.9,0.1H98.8v1h6.5v48.5h-6.7L76.7,49.8h-1.9l-21,49.7h-2.9V82.9h4.6
			v-1H33.7v1H41v2.7c0,2.2-0.1,4.2-0.3,6c-0.2,1.8-0.6,3.4-1.3,4.8c-0.7,1.3-1.7,2.4-2.9,3.2c-1.3,0.8-3,1.2-5.2,1.2
			c-2.6,0-4.9-0.4-6.8-1.2c-1.9-0.8-3.5-2-4.7-3.8c-1.2-1.8-2.1-4.1-2.6-7.1c-0.6-2.9-0.9-6.5-0.9-10.8v-6.2c0-2.6,0.2-5.2,0.5-7.8
			c0.3-2.6,1.1-4.9,2.1-6.9c1.1-2,2.6-3.6,4.6-4.9c2-1.2,4.6-1.9,7.8-1.9c4.1,0,7.4,1.2,9.8,3.8c2.5,2.6,4.3,6.1,5.5,10.8h1.1v-15
			h-1.2c-0.2,0.6-0.5,1.6-0.8,1.8c-0.3,0.2-0.8,0.3-1.4,0.3c-0.6,0-1.4-0.1-2.3-0.4c-0.9-0.3-1.9-0.6-3-0.9
			c-1.1-0.3-2.4-0.6-3.7-0.9c-1.3-0.3-2.7-0.4-4.1-0.4c-3,0-6.1,0.6-9.2,1.9c-3.1,1.2-6,3-8.5,5.3c-2.5,2.3-4.6,5.1-6.2,8.3
			c-1.7,3.2-2.5,6.9-2.5,10.9c0,3.7,0.7,7.1,2.2,10.3c1.5,3.2,3.4,5.9,5.8,8.2c2.4,2.4,5.2,4.2,8.4,5.5c3.2,1.3,6.5,2,10,2
			c2.1,0,4-0.2,5.5-0.7c1.5-0.5,2.9-0.9,4.1-1.4c1.2-0.5,2.3-1,3.3-1.4c1-0.5,2.1-0.7,3.2-0.7c0.6,0,1.1,0.2,1.5,0.4
			c0.5,0.3,0.7,0.7,0.8,2.6h0l0,0h11.5v-0.9h-6.2l7.8-18.4h16.8l8.1,18.4h-6.5v0.9h41v-1h-6.6v-25h4.6c2.2,0,4,0.4,5.2,1.3
			c1.2,0.9,2.1,2,2.7,3.5c0.6,1.4,1,3.1,1.2,5c0.2,1.9,0.3,3.8,0.4,5.8c0,1.3,0.2,2.7,0.3,4.1c0.1,1.5,0.6,2.9,1.3,4.1
			c0.7,1.3,1.8,2.3,3.3,3.2c1.5,0.8,3.5,1.3,6.1,1.3c1.3,0,2.3-0.1,3.2-0.3c0.8-0.2,1.6-0.4,2.2-0.7c0.6-0.3,1.1-0.6,1.6-1.1
			c0.1-0.1,0.1-0.1,0.2-0.2h41.4V86c1.4,2.7,3.1,5.1,5.2,7.2c2.4,2.3,5.2,4.1,8.3,5.4c3.1,1.3,6.4,2,9.8,2c3.5,0,6.8-0.7,9.9-2
			c3.1-1.4,5.9-3.2,8.3-5.6c2.4-2.4,4.2-5.1,5.7-8.2c1.4-3.1,2.1-6.4,2.1-9.9c0-4-0.7-7.6-2.2-10.7c-1.5-3.1-3.5-5.9-5.9-8.1
			c-0.9-0.9-1.9-1.6-3-2.3c0-0.2,0.1-0.3,0.2-0.4c0.2-0.2,0.5-0.4,1-0.5c0.5-0.1,1.2-0.2,2-0.3c0.9-0.1,2-0.2,3.5-0.3
			c1.2-0.1,2.2-0.3,3-0.7c0.3-0.1,0.6-0.4,0.9-0.7h5.3v48.7h-6.5v1h14.1v-1h-6.5V54.9h0.2l31.8,45.7h1.9V50.9h6.5v-1H270.6z
			 M63.1,80.2l7.8-18.8l8.2,18.8H63.1z M118.4,73.4h-2.9V51c0.5-0.1,1-0.1,1.6-0.2c0.5-0.1,1-0.1,1.5-0.1c1.8,0,3.3,0.2,4.4,0.7
			c1.2,0.5,2.1,1.2,2.7,2.2c0.7,1,1.2,2.3,1.4,3.8c0.3,1.6,0.4,3.4,0.4,5.5c0,1.3-0.1,2.6-0.2,3.9c-0.2,1.3-0.6,2.4-1.2,3.4
			c-0.6,1-1.5,1.8-2.8,2.4C122.2,73.1,120.5,73.4,118.4,73.4z M226.7,84.4c-0.3,3.1-0.9,5.7-1.8,8c-1,2.2-2.4,4-4.4,5.3
			c-1.9,1.2-4.6,1.9-8,1.9c-2.6,0-4.8-0.4-6.7-1.1c-1.9-0.7-3.4-2-4.6-3.9c-1.2-1.9-2-4.4-2.6-7.5c-0.5-3.2-0.8-7.1-0.8-12
			c0-3.6,0.2-7,0.5-10c0.3-3,1-5.7,2-7.9c1-2.2,2.5-4,4.4-5.2c2-1.2,4.5-1.8,7.7-1.8c3.5,0,6.2,0.6,8.2,2c1.9,1.3,3.4,3.1,4.4,5.3
			c1,2.3,1.6,4.8,1.8,7.7c0.2,2.9,0.3,6,0.3,9.3C227.1,78,227,81.4,226.7,84.4z"/>
	</g>
</g>
</svg>
