<?xml version="1.0" encoding="utf-8"?>
<!-- Generator: Adobe Illustrator 23.0.3, SVG Export Plug-In . SVG Version: 6.00 Build 0)  -->
<svg version="1.1" id="Capa_1" xmlns="http://www.w3.org/2000/svg" xmlns:xlink="http://www.w3.org/1999/xlink" x="0px" y="0px"
	 viewBox="0 0 548.3 96.1" style="enable-background:new 0 0 548.3 96.1;" xml:space="preserve">
<style type="text/css">
	.st0{clip-path:url(#SVGID_2_);fill:#B2852F;}
</style>
<g>
	<defs>
		<rect id="SVGID_1_" x="-25" y="-14" width="595.3" height="170.1"/>
	</defs>
	<clipPath id="SVGID_2_">
		<use xlink:href="#SVGID_1_"  style="overflow:visible;"/>
	</clipPath>
	<path class="st0" d="M331.2,46.4c-0.1,12.9,10.5,24,24.2,24c13.3-0.1,23.7-10.6,24.1-23.2c0.4-13.6-10.6-24.7-24.2-24.7
		C341.8,22.5,331.1,33.5,331.2,46.4 M355.3,91.7c-24.8,0.1-45.9-20.2-45.4-46c0.4-24.6,20.5-44.5,45.5-44.4
		c25.6,0,45.8,20.7,45.4,45.9C400.5,71.9,380.1,91.8,355.3,91.7"/>
	<path class="st0" d="M24.8,70.4c1.2-0.1,2.4-0.1,3.6-0.2c4.9-0.3,9.5-1.3,13.8-3.7c4.8-2.7,8-6.6,9.6-11.8
		c1.4-4.5,1.5-9.1,0.7-13.7C51.2,33.4,47,28,40,24.7c-3.3-1.6-6.9-2.4-10.5-2.8c-1.5-0.2-3.1-0.2-4.7-0.3V70.4z M1.4,90.7
		c2.1-1.4,2.7-3.4,2.9-5.5c0.1-1.1,0.2-2.3,0.2-3.5c0-26.4,0-52.9,0-79.3v-1C5.4,2,6.1,2.7,7,3.1c1.8,1,3.6,0.7,5.5,0.4
		c4.2-0.6,8.3-1.5,12.5-2c7.9-0.9,15.5,0.6,22.7,3.8c5,2.3,9.5,5.3,13.4,9.2c7.2,7.2,11.4,15.7,12.7,25.8c0.9,7.5,0.2,14.8-2.5,21.8
		c-4.7,12-13.2,20.3-25.2,25c-5,1.9-10.1,3-15.4,3.2c-2,0.1-4,0.1-5.9,0.2c-7.5,0-14.9,0-22.4,0H1.4z"/>
	<path class="st0" d="M543.9,30.4c-1.1-1-2.2-2.2-3.5-3.2c-3.1-2.4-6.7-3.7-10.6-4.3c-4.6-0.7-9.2-0.8-13.7,0.3
		c-6.8,1.6-11.8,5.5-14.7,11.9c-0.2,0.5-0.4,1-0.6,1.6h0.9c7.3,0,14.7,0.1,22,0c1.7,0,3.5-0.5,5.2-0.9c0.3-0.1,0.6-0.3,1-0.5v22
		c-1.5-0.3-2.9-0.8-4.4-1c-1.4-0.2-2.9-0.2-4.3-0.2c-6.5,0-13,0-19.5,0.1H501c0.6,1.3,1.1,2.6,1.8,3.8c2.6,4.5,6.6,7.2,11.4,8.9
		c3.2,1.1,6.6,1.6,10,1.6c3.3,0.1,6.6-0.1,9.8-1c3.9-1.1,7.2-3.1,9.6-6.4c0.1-0.1,0.2-0.2,0.2-0.3c0,0,0.1,0,0.2-0.1v28.3
		c-2-1.6-4.2-1.1-6.4-0.9c-3.4,0.3-6.7,0.6-10.1,0.8c-2.2,0.2-4.4,0.3-6.6,0.2c-6.3-0.1-12.6-1-18.4-3.6
		c-6.9-3.2-12.6-7.8-16.9-14.1c-4.7-6.8-7.2-14.4-8-22.6c-0.5-4.7-0.3-9.5,0.4-14.2c0.8-4.6,2.5-8.9,4.9-12.9
		c5.3-8.5,12.5-14.8,21.9-18.4c5.2-2,10.7-3.2,16.3-3.5c5.9-0.3,11.7,0.2,17.6,1c2.1,0.3,3.8-0.1,5.3-1.7V30.4z"/>
	<path class="st0" d="M202.9,30.8c-0.8-0.8-1.6-1.6-2.5-2.3c-3.3-2.9-7.3-4.4-11.6-5.1c-5.1-0.8-10.1-0.8-15,0.7
		c-6.3,1.9-10.9,5.9-13.5,12.1c-0.1,0.3-0.2,0.6-0.4,1.1h0.9c7.5,0,14.9,0,22.4,0c2,0,4-0.2,5.8-1.3V58c-0.7-0.2-1.4-0.5-2.1-0.6
		c-1.4-0.2-2.8-0.6-4.2-0.6c-7.3-0.1-14.5,0-21.8,0h-0.9c0.7,2.2,1.7,4.1,3,5.8c3.3,4.1,7.6,6.5,12.6,7.6c5.7,1.3,11.4,1.4,17.1-0.2
		c3.9-1.1,7.2-3.1,9.7-6.3c0.1-0.1,0.1-0.2,0.2-0.2c0,0,0.1,0,0.2-0.1v28.2c-1.3-0.8-2.7-1.2-4.2-1.1c-2.4,0.2-4.8,0.5-7.1,0.7
		c-4.3,0.3-8.6,0.6-12.9,0.6c-10.3-0.1-19.6-3.3-27.5-10.2c-5.6-4.9-9.5-10.9-12-17.9c-2.4-6.8-3.2-13.8-2.9-21
		c0.4-9.3,3.8-17.4,9.9-24.4c5.1-5.9,11.3-10.3,18.8-12.9c5.1-1.8,10.4-2.9,15.9-3.1c5.7-0.2,11.3,0.3,16.8,1c1.9,0.3,3.6-0.1,5-1.5
		c0,0,0.1-0.1,0.2-0.1V30.8z"/>
	<path class="st0" d="M216.5,3.2h28.3c0,0.1,0,0.1,0,0.2c-1.6,2-1.2,4-0.2,6.1c2.9,6.1,5.7,12.2,8.6,18.4c2.5,5.4,4.9,10.9,7.4,16.3
		c0.1,0.2,0.1,0.3,0.3,0.6c0.3-0.6,0.5-1,0.7-1.4c3.6-7.9,7.1-15.8,10.7-23.7c1.6-3.5,3.3-7.1,4.9-10.6c0.9-2,1.2-4-0.5-5.9
		c9.9,0,19.6,0,29.4,0c0,0,0,0.1,0,0.1c-2.4,1.3-3.5,3.5-4.6,5.8c-1.4,2.9-2.8,5.8-4.2,8.7c-4.2,8.8-8.5,17.5-12.7,26.3
		c-2.6,5.4-5.2,10.8-7.8,16.2c-4.7,9.7-9.4,19.4-14.1,29.1c-0.4,0.8-0.8,1.6-1.3,2.6c-0.2-0.3-0.4-0.6-0.5-0.9
		c-4.1-8.5-8.2-16.9-12.3-25.4c-2.2-4.6-4.4-9.2-6.6-13.8c-3.9-8.2-7.8-16.4-11.8-24.6c-2.1-4.4-4.3-8.8-6.4-13.2
		c-0.9-1.9-1.9-3.8-2.8-5.7C219.9,6.4,218.7,4.4,216.5,3.2"/>
	<path class="st0" d="M463.1,90.6h-44.5c2.5-1.8,2.9-4.5,2.9-7.1c0.1-13.7,0.1-27.3,0.1-41c0-10.1,0-20.3,0-30.4
		c0-1.5-0.2-3.1-0.5-4.6c-0.3-1.6-1-3.1-2.5-4.1h26.2c-2.3,1.7-2.8,4.2-2.8,6.8c-0.1,5.3-0.1,10.5-0.1,15.8c0,14.9,0,29.8,0,44.7v1
		h0.9c3.7,0,7.5,0,11.2,0c3.5,0,6.4-1.4,8.7-3.9c0.1-0.1,0.2-0.2,0.3-0.4V90.6z"/>
	<path class="st0" d="M92,3.8h26.3c-0.5,0.7-1.2,1.4-1.6,2.1c-0.8,1.5-1,3.1-1.1,4.8c-0.1,1.9-0.1,3.9-0.1,5.8c0,22,0,44,0,66
		c0,1.5,0.2,3,0.5,4.5c0.3,1.6,1,3,2.6,4.1H92.1c1.6-1.1,2.3-2.7,2.6-4.4c0.2-1.2,0.4-2.5,0.4-3.8c0-23.6,0-47.2,0-70.9
		c0-1.3-0.2-2.5-0.4-3.8C94.4,6.5,93.8,4.9,92,3.8"/>
</g>
</svg>
